<?xml version="1.0" encoding="utf-8"?>
<!-- Generator: Adobe Illustrator 22.0.1, SVG Export Plug-In . SVG Version: 6.00 Build 0)  -->
<svg version="1.1" id="Capa_1" xmlns="http://www.w3.org/2000/svg" xmlns:xlink="http://www.w3.org/1999/xlink" x="0px" y="0px"
	 viewBox="0 0 159.7 55" style="enable-background:new 0 0 159.7 55;" xml:space="preserve">
<style type="text/css">
	.st0{clip-path:url(#SVGID_2_);}
	.st1{clip-path:url(#SVGID_4_);fill:#3B3B3B;}
	.st2{clip-path:url(#SVGID_6_);}
	.st3{clip-path:url(#SVGID_8_);fill:#FFFFFF;}
	.st4{clip-path:url(#SVGID_10_);}
	.st5{clip-path:url(#SVGID_12_);fill:#FFFFFF;}
	.st6{clip-path:url(#SVGID_14_);}
	.st7{clip-path:url(#SVGID_16_);fill:#FFFFFF;}
	.st8{clip-path:url(#SVGID_18_);}
	.st9{clip-path:url(#SVGID_20_);fill:#FFFFFF;}
	.st10{clip-path:url(#SVGID_22_);}
	.st11{clip-path:url(#SVGID_24_);fill:#FFFFFF;}
	.st12{clip-path:url(#SVGID_26_);}
	.st13{clip-path:url(#SVGID_28_);fill:#FFFFFF;}
	.st14{clip-path:url(#SVGID_30_);}
	.st15{clip-path:url(#SVGID_32_);fill:#FFFFFF;}
	.st16{clip-path:url(#SVGID_34_);}
	.st17{clip-path:url(#SVGID_36_);fill:#FFFFFF;}
	.st18{clip-path:url(#SVGID_38_);}
	.st19{clip-path:url(#SVGID_40_);fill:#FFFFFF;}
	.st20{clip-path:url(#SVGID_42_);}
	.st21{clip-path:url(#SVGID_44_);fill:#FFFFFF;}
	.st22{clip-path:url(#SVGID_46_);}
	.st23{clip-path:url(#SVGID_48_);fill:#FFFFFF;}
	.st24{clip-path:url(#SVGID_50_);}
	.st25{clip-path:url(#SVGID_52_);fill:#FFFFFF;}
	.st26{clip-path:url(#SVGID_54_);}
	.st27{clip-path:url(#SVGID_56_);fill:#FFFFFF;}
	.st28{clip-path:url(#SVGID_58_);}
	.st29{clip-path:url(#SVGID_60_);fill:#FFFFFF;}
	.st30{clip-path:url(#SVGID_62_);}
	.st31{clip-path:url(#SVGID_64_);fill:#FFFFFF;}
	.st32{clip-path:url(#SVGID_66_);}
	.st33{clip-path:url(#SVGID_68_);fill:#FFFFFF;}
	.st34{clip-path:url(#SVGID_70_);}
	.st35{clip-path:url(#SVGID_72_);fill:#FFFFFF;}
	.st36{clip-path:url(#SVGID_74_);}
	.st37{clip-path:url(#SVGID_76_);fill:#FFFFFF;}
	.st38{clip-path:url(#SVGID_78_);}
	.st39{clip-path:url(#SVGID_80_);fill:#FFFFFF;}
	.st40{clip-path:url(#SVGID_82_);}
	.st41{clip-path:url(#SVGID_84_);fill:#FFFFFF;}
	.st42{clip-path:url(#SVGID_86_);}
	.st43{clip-path:url(#SVGID_88_);fill:#FFFFFF;}
</style>
<g>
	<g>
		<defs>
			<path id="SVGID_1_" d="M159.7,52.2c0,1.6-1.3,2.8-2.8,2.8H2.8C1.3,55,0,53.7,0,52.2V2.8C0,1.3,1.3,0,2.8,0h154
				c1.6,0,2.8,1.3,2.8,2.8V52.2"/>
		</defs>
		<clipPath id="SVGID_2_">
			<use xlink:href="#SVGID_1_"  style="overflow:visible;"/>
		</clipPath>
		<g class="st0">
			<defs>
				<rect id="SVGID_3_" x="-130.3" y="-336" width="1200" height="1594"/>
			</defs>
			<clipPath id="SVGID_4_">
				<use xlink:href="#SVGID_3_"  style="overflow:visible;"/>
			</clipPath>
			<rect x="-5" y="-5" class="st1" width="169.7" height="65"/>
		</g>
	</g>
	<g>
		<defs>
			<path id="SVGID_5_" d="M14.4,15.9h15.5V39H14.4V15.9z M22.2,44.1c-1.1,0-2-0.9-2-2s0.9-2,2-2s2,0.9,2,2S23.2,44.1,22.2,44.1z
				 M28.9,10.2H15.4c-1.7,0-3.4,2-3.4,3.4v28.2c0,1.5,1.6,3.1,3.1,3.1h14.2c1.5,0,3.1-1.7,3.1-3.1V13.7
				C32.3,11.6,30.5,10.2,28.9,10.2z"/>
		</defs>
		<clipPath id="SVGID_6_">
			<use xlink:href="#SVGID_5_"  style="overflow:visible;"/>
		</clipPath>
		<g class="st2">
			<defs>
				<rect id="SVGID_7_" x="-130.3" y="-336" width="1200" height="1594"/>
			</defs>
			<clipPath id="SVGID_8_">
				<use xlink:href="#SVGID_7_"  style="overflow:visible;"/>
			</clipPath>
			<rect x="7" y="5.2" class="st3" width="30.4" height="44.7"/>
		</g>
	</g>
	<g>
		<defs>
			<path id="SVGID_9_" d="M50.3,35l-1.4-4.3c-0.3-1.1-0.6-2.3-0.9-3.3H48c-0.3,1-0.5,2.2-0.8,3.3L45.8,35H50.3z M45.3,37.4l-1.5,5
				h-3.3l5.6-17.5h4.1l5.7,17.5h-3.4l-1.6-5H45.3z"/>
		</defs>
		<clipPath id="SVGID_10_">
			<use xlink:href="#SVGID_9_"  style="overflow:visible;"/>
		</clipPath>
		<g class="st4">
			<defs>
				<rect id="SVGID_11_" x="-130.3" y="-336" width="1200" height="1594"/>
			</defs>
			<clipPath id="SVGID_12_">
				<use xlink:href="#SVGID_11_"  style="overflow:visible;"/>
			</clipPath>
			<rect x="35.5" y="19.9" class="st5" width="25.4" height="27.5"/>
		</g>
	</g>
	<g>
		<defs>
			<path id="SVGID_13_" d="M60.8,37.1c0,0.3,0,0.6,0.1,0.9c0.3,1.3,1.5,2.2,2.8,2.2c2,0,3.2-1.7,3.2-4.2c0-2.2-1.1-4.1-3.1-4.1
				c-1.3,0-2.5,1-2.9,2.4c-0.1,0.3-0.1,0.5-0.1,0.8L60.8,37.1L60.8,37.1z M57.6,33.9c0-1.7-0.1-3-0.1-4.2h2.8l0.2,1.9h0.1
				c0.9-1.4,2.4-2.2,4.3-2.2c2.9,0,5.3,2.5,5.3,6.4c0,4.6-2.9,6.8-5.8,6.8c-1.6,0-2.9-0.7-3.6-1.7h-0.1v6.6h-3.2L57.6,33.9
				L57.6,33.9z"/>
		</defs>
		<clipPath id="SVGID_14_">
			<use xlink:href="#SVGID_13_"  style="overflow:visible;"/>
		</clipPath>
		<g class="st6">
			<defs>
				<rect id="SVGID_15_" x="-130.3" y="-336" width="1200" height="1594"/>
			</defs>
			<clipPath id="SVGID_16_">
				<use xlink:href="#SVGID_15_"  style="overflow:visible;"/>
			</clipPath>
			<rect x="52.5" y="24.4" class="st7" width="22.7" height="28.1"/>
		</g>
	</g>
	<g>
		<defs>
			<path id="SVGID_17_" d="M75.5,37.1c0,0.3,0,0.6,0.1,0.9c0.3,1.3,1.5,2.2,2.8,2.2c2,0,3.2-1.7,3.2-4.2c0-2.2-1.1-4.1-3.1-4.1
				c-1.3,0-2.5,1-2.9,2.4c-0.1,0.3-0.1,0.5-0.1,0.8L75.5,37.1L75.5,37.1z M72.3,33.9c0-1.7-0.1-3-0.1-4.2H75l0.2,1.9h0.1
				c0.9-1.4,2.4-2.2,4.3-2.2c2.9,0,5.3,2.5,5.3,6.4c0,4.6-2.9,6.8-5.8,6.8c-1.6,0-2.9-0.7-3.6-1.7h-0.1v6.6h-3.2L72.3,33.9
				L72.3,33.9z"/>
		</defs>
		<clipPath id="SVGID_18_">
			<use xlink:href="#SVGID_17_"  style="overflow:visible;"/>
		</clipPath>
		<g class="st8">
			<defs>
				<rect id="SVGID_19_" x="-130.3" y="-336" width="1200" height="1594"/>
			</defs>
			<clipPath id="SVGID_20_">
				<use xlink:href="#SVGID_19_"  style="overflow:visible;"/>
			</clipPath>
			<rect x="67.2" y="24.4" class="st9" width="22.7" height="28.1"/>
		</g>
	</g>
	<g>
		<defs>
			<path id="SVGID_21_" d="M91.9,38.9c1,0.6,2.6,1.1,4.2,1.1c2.1,0,3.2-1,3.2-2.4c0-1.3-0.9-2.1-3.1-2.9c-2.9-1-4.7-2.6-4.7-5.1
				c0-2.9,2.4-5,6.2-5c1.9,0,3.3,0.4,4.2,0.9l-0.8,2.6c-0.6-0.3-1.8-0.8-3.5-0.8c-2,0-2.9,1.1-2.9,2.1c0,1.4,1,2,3.4,2.9
				c3,1.1,4.5,2.7,4.5,5.2c0,2.8-2.1,5.3-6.7,5.3c-1.8,0-3.8-0.5-4.7-1.1L91.9,38.9"/>
		</defs>
		<clipPath id="SVGID_22_">
			<use xlink:href="#SVGID_21_"  style="overflow:visible;"/>
		</clipPath>
		<g class="st10">
			<defs>
				<rect id="SVGID_23_" x="-130.3" y="-336" width="1200" height="1594"/>
			</defs>
			<clipPath id="SVGID_24_">
				<use xlink:href="#SVGID_23_"  style="overflow:visible;"/>
			</clipPath>
			<rect x="86.2" y="19.6" class="st11" width="21.4" height="28.1"/>
		</g>
	</g>
	<g>
		<defs>
			<path id="SVGID_25_" d="M108.5,26.1v3.6h3v2.4h-3v5.6c0,1.5,0.4,2.3,1.6,2.3c0.5,0,1-0.1,1.2-0.2l0.1,2.4
				c-0.5,0.2-1.3,0.3-2.3,0.3c-1.2,0-2.2-0.4-2.8-1c-0.7-0.7-1-1.9-1-3.5v-6h-1.8v-2.4h1.8v-2.9L108.5,26.1"/>
		</defs>
		<clipPath id="SVGID_26_">
			<use xlink:href="#SVGID_25_"  style="overflow:visible;"/>
		</clipPath>
		<g class="st12">
			<defs>
				<rect id="SVGID_27_" x="-130.3" y="-336" width="1200" height="1594"/>
			</defs>
			<clipPath id="SVGID_28_">
				<use xlink:href="#SVGID_27_"  style="overflow:visible;"/>
			</clipPath>
			<rect x="98.6" y="21.1" class="st13" width="18" height="26.5"/>
		</g>
	</g>
	<g>
		<defs>
			<path id="SVGID_29_" d="M116,36.1c0,2.4,1.2,4.3,3.1,4.3c1.8,0,3.1-1.8,3.1-4.3c0-2-0.9-4.2-3.1-4.2C116.9,31.8,116,34,116,36.1z
				 M125.5,35.9c0,4.7-3.3,6.7-6.5,6.7c-3.6,0-6.3-2.5-6.3-6.5c0-4.2,2.7-6.7,6.6-6.7C123,29.4,125.5,32.1,125.5,35.9z"/>
		</defs>
		<clipPath id="SVGID_30_">
			<use xlink:href="#SVGID_29_"  style="overflow:visible;"/>
		</clipPath>
		<g class="st14">
			<defs>
				<rect id="SVGID_31_" x="-130.3" y="-336" width="1200" height="1594"/>
			</defs>
			<clipPath id="SVGID_32_">
				<use xlink:href="#SVGID_31_"  style="overflow:visible;"/>
			</clipPath>
			<rect x="107.7" y="24.4" class="st15" width="22.8" height="23.2"/>
		</g>
	</g>
	<g>
		<defs>
			<path id="SVGID_33_" d="M127.6,33.8c0-1.7,0-2.9-0.1-4.1h2.8l0.1,2.4h0.1c0.6-1.8,2.1-2.7,3.5-2.7c0.3,0,0.5,0,0.8,0.1v3
				c-0.3-0.1-0.5-0.1-0.9-0.1c-1.5,0-2.6,1-2.9,2.4c-0.1,0.3-0.1,0.6-0.1,1v6.6h-3.2V33.8"/>
		</defs>
		<clipPath id="SVGID_34_">
			<use xlink:href="#SVGID_33_"  style="overflow:visible;"/>
		</clipPath>
		<g class="st16">
			<defs>
				<rect id="SVGID_35_" x="-130.3" y="-336" width="1200" height="1594"/>
			</defs>
			<clipPath id="SVGID_36_">
				<use xlink:href="#SVGID_35_"  style="overflow:visible;"/>
			</clipPath>
			<rect x="122.5" y="24.4" class="st17" width="17.2" height="22.9"/>
		</g>
	</g>
	<g>
		<defs>
			<path id="SVGID_37_" d="M144.2,34.7c0-1.2-0.5-3.1-2.6-3.1c-2,0-2.8,1.8-2.9,3.1H144.2z M138.6,36.9c0.1,2.3,1.9,3.3,3.9,3.3
				c1.5,0,2.5-0.2,3.5-0.6l0.5,2.2c-1.1,0.4-2.6,0.8-4.4,0.8c-4.1,0-6.5-2.5-6.5-6.4c0-3.5,2.1-6.8,6.2-6.8c4.1,0,5.5,3.4,5.5,6.2
				c0,0.6-0.1,1.1-0.1,1.4H138.6z"/>
		</defs>
		<clipPath id="SVGID_38_">
			<use xlink:href="#SVGID_37_"  style="overflow:visible;"/>
		</clipPath>
		<g class="st18">
			<defs>
				<rect id="SVGID_39_" x="-130.3" y="-336" width="1200" height="1594"/>
			</defs>
			<clipPath id="SVGID_40_">
				<use xlink:href="#SVGID_39_"  style="overflow:visible;"/>
			</clipPath>
			<rect x="130.5" y="24.4" class="st19" width="21.6" height="23.2"/>
		</g>
	</g>
	<g>
		<defs>
			<path id="SVGID_41_" d="M42.4,16.2c0.3,0,0.6,0.1,1.1,0.1c2.2,0,3.4-1.2,3.4-3.4c0-1.9-1.1-3.1-3.3-3.1c-0.5,0-0.9,0-1.2,0.1
				V16.2z M41.4,9c0.6-0.1,1.4-0.2,2.2-0.2c1.5,0,2.6,0.3,3.3,1c0.7,0.7,1.1,1.6,1.1,2.9c0,1.3-0.4,2.4-1.2,3.1
				c-0.8,0.8-2,1.2-3.6,1.2c-0.7,0-1.4,0-1.9-0.1V9z"/>
		</defs>
		<clipPath id="SVGID_42_">
			<use xlink:href="#SVGID_41_"  style="overflow:visible;"/>
		</clipPath>
		<g class="st20">
			<defs>
				<rect id="SVGID_43_" x="-130.3" y="-336" width="1200" height="1594"/>
			</defs>
			<clipPath id="SVGID_44_">
				<use xlink:href="#SVGID_43_"  style="overflow:visible;"/>
			</clipPath>
			<rect x="36.4" y="3.9" class="st21" width="16.6" height="18.2"/>
		</g>
	</g>
	<g>
		<defs>
			<path id="SVGID_45_" d="M49.3,11.2h1.1V17h-1.1V11.2z M50.5,9.6c0,0.4-0.3,0.6-0.7,0.6c-0.4,0-0.6-0.3-0.6-0.6
				c0-0.4,0.3-0.7,0.7-0.7C50.3,8.9,50.5,9.2,50.5,9.6z"/>
		</defs>
		<clipPath id="SVGID_46_">
			<use xlink:href="#SVGID_45_"  style="overflow:visible;"/>
		</clipPath>
		<g class="st22">
			<defs>
				<rect id="SVGID_47_" x="-130.3" y="-336" width="1200" height="1594"/>
			</defs>
			<clipPath id="SVGID_48_">
				<use xlink:href="#SVGID_47_"  style="overflow:visible;"/>
			</clipPath>
			<rect x="44.2" y="3.9" class="st23" width="11.3" height="18.1"/>
		</g>
	</g>
	<g>
		<defs>
			<path id="SVGID_49_" d="M52,15.9c0.3,0.2,0.9,0.4,1.4,0.4c0.8,0,1.1-0.4,1.1-0.9c0-0.5-0.3-0.8-1.1-1.1c-1-0.4-1.5-0.9-1.5-1.6
				c0-0.9,0.8-1.7,2-1.7c0.6,0,1.1,0.2,1.4,0.4l-0.3,0.8c-0.2-0.1-0.6-0.3-1.2-0.3c-0.6,0-1,0.4-1,0.8c0,0.5,0.3,0.7,1.1,1
				c1,0.4,1.5,0.9,1.5,1.8c0,1-0.8,1.7-2.2,1.7c-0.6,0-1.2-0.2-1.6-0.4L52,15.9"/>
		</defs>
		<clipPath id="SVGID_50_">
			<use xlink:href="#SVGID_49_"  style="overflow:visible;"/>
		</clipPath>
		<g class="st24">
			<defs>
				<rect id="SVGID_51_" x="-130.3" y="-336" width="1200" height="1594"/>
			</defs>
			<clipPath id="SVGID_52_">
				<use xlink:href="#SVGID_51_"  style="overflow:visible;"/>
			</clipPath>
			<rect x="46.7" y="6.1" class="st25" width="13.8" height="16.1"/>
		</g>
	</g>
	<g>
		<defs>
			<path id="SVGID_53_" d="M57.9,14.6c0,0.2,0,0.3,0,0.4c0.2,0.7,0.8,1.2,1.6,1.2c1.1,0,1.8-0.9,1.8-2.2c0-1.2-0.6-2.2-1.7-2.2
				c-0.7,0-1.4,0.5-1.6,1.3c0,0.1-0.1,0.3-0.1,0.4V14.6z M56.9,13.1c0-0.7,0-1.3,0-1.9h0.9l0,1h0c0.4-0.7,1.1-1.1,2.1-1.1
				c1.4,0,2.5,1.2,2.5,3c0,2.1-1.3,3.1-2.6,3.1c-0.8,0-1.4-0.3-1.8-0.9h0v3.2h-1V13.1z"/>
		</defs>
		<clipPath id="SVGID_54_">
			<use xlink:href="#SVGID_53_"  style="overflow:visible;"/>
		</clipPath>
		<g class="st26">
			<defs>
				<rect id="SVGID_55_" x="-130.3" y="-336" width="1200" height="1594"/>
			</defs>
			<clipPath id="SVGID_56_">
				<use xlink:href="#SVGID_55_"  style="overflow:visible;"/>
			</clipPath>
			<rect x="51.8" y="6.1" class="st27" width="15.5" height="18.3"/>
		</g>
	</g>
	<g>
		<defs>
			<path id="SVGID_57_" d="M64.4,14.1c0,1.3,0.7,2.2,1.8,2.2c1,0,1.8-0.9,1.8-2.3c0-1-0.5-2.2-1.7-2.2C64.9,11.9,64.4,13,64.4,14.1z
				 M69,14.1c0,2.1-1.5,3.1-2.9,3.1c-1.6,0-2.8-1.2-2.8-3c0-1.9,1.3-3.1,2.9-3.1C67.8,11.1,69,12.3,69,14.1z"/>
		</defs>
		<clipPath id="SVGID_58_">
			<use xlink:href="#SVGID_57_"  style="overflow:visible;"/>
		</clipPath>
		<g class="st28">
			<defs>
				<rect id="SVGID_59_" x="-130.3" y="-336" width="1200" height="1594"/>
			</defs>
			<clipPath id="SVGID_60_">
				<use xlink:href="#SVGID_59_"  style="overflow:visible;"/>
			</clipPath>
			<rect x="58.3" y="6.1" class="st29" width="15.7" height="16.1"/>
		</g>
	</g>
	<g>
		<defs>
			<path id="SVGID_61_" d="M70.3,12.8c0-0.6,0-1.1,0-1.6h0.9l0.1,1h0c0.3-0.6,1-1.1,1.9-1.1c0.8,0,2.1,0.5,2.1,2.5V17h-1.1v-3.3
				c0-0.9-0.3-1.7-1.3-1.7c-0.7,0-1.2,0.5-1.4,1.1c0,0.1-0.1,0.3-0.1,0.5V17h-1.1V12.8"/>
		</defs>
		<clipPath id="SVGID_62_">
			<use xlink:href="#SVGID_61_"  style="overflow:visible;"/>
		</clipPath>
		<g class="st30">
			<defs>
				<rect id="SVGID_63_" x="-130.3" y="-336" width="1200" height="1594"/>
			</defs>
			<clipPath id="SVGID_64_">
				<use xlink:href="#SVGID_63_"  style="overflow:visible;"/>
			</clipPath>
			<rect x="65.3" y="6.1" class="st31" width="15" height="15.9"/>
		</g>
	</g>
	<g>
		<defs>
			<path id="SVGID_65_" d="M77,11.2H78V17H77V11.2z M78.1,9.6c0,0.4-0.3,0.6-0.7,0.6c-0.4,0-0.6-0.3-0.6-0.6c0-0.4,0.3-0.7,0.7-0.7
				C77.9,8.9,78.1,9.2,78.1,9.6z"/>
		</defs>
		<clipPath id="SVGID_66_">
			<use xlink:href="#SVGID_65_"  style="overflow:visible;"/>
		</clipPath>
		<g class="st32">
			<defs>
				<rect id="SVGID_67_" x="-130.3" y="-336" width="1200" height="1594"/>
			</defs>
			<clipPath id="SVGID_68_">
				<use xlink:href="#SVGID_67_"  style="overflow:visible;"/>
			</clipPath>
			<rect x="71.8" y="3.9" class="st33" width="11.3" height="18.1"/>
		</g>
	</g>
	<g>
		<defs>
			<path id="SVGID_69_" d="M80.8,14.7c0,0.1,0,0.3,0,0.4c0.2,0.7,0.8,1.2,1.6,1.2c1.1,0,1.8-0.9,1.8-2.2c0-1.2-0.6-2.2-1.7-2.2
				c-0.7,0-1.4,0.5-1.6,1.3c0,0.1-0.1,0.3-0.1,0.4V14.7z M79.7,17c0-0.4,0-1,0-1.5v-7h1v3.6h0c0.4-0.6,1-1.1,2-1.1
				c1.4,0,2.5,1.2,2.4,3c0,2.1-1.3,3.1-2.6,3.1c-0.8,0-1.5-0.3-1.9-1.1h0l0,1H79.7z"/>
		</defs>
		<clipPath id="SVGID_70_">
			<use xlink:href="#SVGID_69_"  style="overflow:visible;"/>
		</clipPath>
		<g class="st34">
			<defs>
				<rect id="SVGID_71_" x="-130.3" y="-336" width="1200" height="1594"/>
			</defs>
			<clipPath id="SVGID_72_">
				<use xlink:href="#SVGID_71_"  style="overflow:visible;"/>
			</clipPath>
			<rect x="74.7" y="3.5" class="st35" width="15.5" height="18.6"/>
		</g>
	</g>
	<g>
		<defs>
			<rect id="SVGID_73_" x="86.6" y="8.5" width="1.1" height="8.5"/>
		</defs>
		<clipPath id="SVGID_74_">
			<use xlink:href="#SVGID_73_"  style="overflow:visible;"/>
		</clipPath>
		<g class="st36">
			<defs>
				<rect id="SVGID_75_" x="-130.3" y="-336" width="1200" height="1594"/>
			</defs>
			<clipPath id="SVGID_76_">
				<use xlink:href="#SVGID_75_"  style="overflow:visible;"/>
			</clipPath>
			<rect x="81.6" y="3.5" class="st37" width="11.1" height="18.5"/>
		</g>
	</g>
	<g>
		<defs>
			<path id="SVGID_77_" d="M93.1,13.5c0-0.7-0.3-1.7-1.5-1.7c-1.1,0-1.5,1-1.6,1.7H93.1z M90,14.3c0,1.4,0.9,2,2,2
				c0.8,0,1.2-0.1,1.6-0.3l0.2,0.8c-0.4,0.2-1,0.4-1.9,0.4c-1.8,0-2.9-1.2-2.9-2.9s1-3.1,2.7-3.1c1.9,0,2.4,1.7,2.4,2.7
				c0,0.2,0,0.4,0,0.5H90z"/>
		</defs>
		<clipPath id="SVGID_78_">
			<use xlink:href="#SVGID_77_"  style="overflow:visible;"/>
		</clipPath>
		<g class="st38">
			<defs>
				<rect id="SVGID_79_" x="-130.3" y="-336" width="1200" height="1594"/>
			</defs>
			<clipPath id="SVGID_80_">
				<use xlink:href="#SVGID_79_"  style="overflow:visible;"/>
			</clipPath>
			<rect x="84" y="6.1" class="st39" width="15.1" height="16.1"/>
		</g>
	</g>
	<g>
		<defs>
			<path id="SVGID_81_" d="M101.7,13.5c0-0.7-0.3-1.7-1.5-1.7c-1.1,0-1.5,1-1.6,1.7H101.7z M98.6,14.3c0,1.4,0.9,2,2,2
				c0.8,0,1.2-0.1,1.6-0.3l0.2,0.8c-0.4,0.2-1,0.4-1.9,0.4c-1.8,0-2.9-1.2-2.9-2.9s1-3.1,2.7-3.1c1.9,0,2.4,1.7,2.4,2.7
				c0,0.2,0,0.4,0,0.5H98.6z"/>
		</defs>
		<clipPath id="SVGID_82_">
			<use xlink:href="#SVGID_81_"  style="overflow:visible;"/>
		</clipPath>
		<g class="st40">
			<defs>
				<rect id="SVGID_83_" x="-130.3" y="-336" width="1200" height="1594"/>
			</defs>
			<clipPath id="SVGID_84_">
				<use xlink:href="#SVGID_83_"  style="overflow:visible;"/>
			</clipPath>
			<rect x="92.6" y="6.1" class="st41" width="15.1" height="16.1"/>
		</g>
	</g>
	<g>
		<defs>
			<path id="SVGID_85_" d="M104,12.8c0-0.6,0-1.1,0-1.6h0.9l0.1,1h0c0.3-0.6,1-1.1,1.9-1.1c0.8,0,2.1,0.5,2.1,2.5V17h-1.1v-3.3
				c0-0.9-0.3-1.7-1.3-1.7c-0.7,0-1.2,0.5-1.4,1.1c0,0.1-0.1,0.3-0.1,0.5V17H104V12.8"/>
		</defs>
		<clipPath id="SVGID_86_">
			<use xlink:href="#SVGID_85_"  style="overflow:visible;"/>
		</clipPath>
		<g class="st42">
			<defs>
				<rect id="SVGID_87_" x="-130.3" y="-336" width="1200" height="1594"/>
			</defs>
			<clipPath id="SVGID_88_">
				<use xlink:href="#SVGID_87_"  style="overflow:visible;"/>
			</clipPath>
			<rect x="99" y="6.1" class="st43" width="15" height="15.9"/>
		</g>
	</g>
</g>
</svg>
