<svg enable-background="new 0 0 159.7 55" viewBox="0 0 159.7 55" xmlns="http://www.w3.org/2000/svg" xmlns:xlink="http://www.w3.org/1999/xlink"><clipPath id="a"><path d="m159.7 52.2c0 1.6-1.3 2.8-2.8 2.8h-154.1c-1.5 0-2.8-1.3-2.8-2.8v-49.4c0-1.5 1.3-2.8 2.8-2.8h154c1.6 0 2.8 1.3 2.8 2.8v49.4"/></clipPath><clipPath id="b"><path d="m-130.3-336h1200v1594h-1200z"/></clipPath><clipPath id="c"><path d="m14.4 15.9h15.5v23.1h-15.5zm7.8 28.2c-1.1 0-2-.9-2-2s.9-2 2-2 2 .9 2 2-1 2-2 2zm6.7-33.9h-13.5c-1.7 0-3.4 2-3.4 3.4v28.2c0 1.5 1.6 3.1 3.1 3.1h14.2c1.5 0 3.1-1.7 3.1-3.1v-28.1c-.1-2.1-1.9-3.5-3.5-3.5z"/></clipPath><clipPath id="d"><path d="m-130.3-336h1200v1594h-1200z"/></clipPath><clipPath id="e"><path d="m50.3 35-1.4-4.3c-.3-1.1-.6-2.3-.9-3.3-.3 1-.5 2.2-.8 3.3l-1.4 4.3zm-5 2.4-1.5 5h-3.3l5.6-17.5h4.1l5.7 17.5h-3.4l-1.6-5z"/></clipPath><clipPath id="f"><path d="m-130.3-336h1200v1594h-1200z"/></clipPath><clipPath id="g"><path d="m60.8 37.1c0 .3 0 .6.1.9.3 1.3 1.5 2.2 2.8 2.2 2 0 3.2-1.7 3.2-4.2 0-2.2-1.1-4.1-3.1-4.1-1.3 0-2.5 1-2.9 2.4-.1.3-.1.5-.1.8zm-3.2-3.2c0-1.7-.1-3-.1-4.2h2.8l.2 1.9h.1c.9-1.4 2.4-2.2 4.3-2.2 2.9 0 5.3 2.5 5.3 6.4 0 4.6-2.9 6.8-5.8 6.8-1.6 0-2.9-.7-3.6-1.7h-.1v6.6h-3.2z"/></clipPath><clipPath id="h"><path d="m-130.3-336h1200v1594h-1200z"/></clipPath><clipPath id="i"><path d="m75.5 37.1c0 .3 0 .6.1.9.3 1.3 1.5 2.2 2.8 2.2 2 0 3.2-1.7 3.2-4.2 0-2.2-1.1-4.1-3.1-4.1-1.3 0-2.5 1-2.9 2.4-.1.3-.1.5-.1.8zm-3.2-3.2c0-1.7-.1-3-.1-4.2h2.8l.2 1.9h.1c.9-1.4 2.4-2.2 4.3-2.2 2.9 0 5.3 2.5 5.3 6.4 0 4.6-2.9 6.8-5.8 6.8-1.6 0-2.9-.7-3.6-1.7h-.1v6.6h-3.2z"/></clipPath><clipPath id="j"><path d="m-130.3-336h1200v1594h-1200z"/></clipPath><clipPath id="k"><path d="m91.9 38.9c1 .6 2.6 1.1 4.2 1.1 2.1 0 3.2-1 3.2-2.4 0-1.3-.9-2.1-3.1-2.9-2.9-1-4.7-2.6-4.7-5.1 0-2.9 2.4-5 6.2-5 1.9 0 3.3.4 4.2.9l-.8 2.6c-.6-.3-1.8-.8-3.5-.8-2 0-2.9 1.1-2.9 2.1 0 1.4 1 2 3.4 2.9 3 1.1 4.5 2.7 4.5 5.2 0 2.8-2.1 5.3-6.7 5.3-1.8 0-3.8-.5-4.7-1.1z"/></clipPath><clipPath id="l"><path d="m-130.3-336h1200v1594h-1200z"/></clipPath><clipPath id="m"><path d="m108.5 26.1v3.6h3v2.4h-3v5.6c0 1.5.4 2.3 1.6 2.3.5 0 1-.1 1.2-.2l.1 2.4c-.5.2-1.3.3-2.3.3-1.2 0-2.2-.4-2.8-1-.7-.7-1-1.9-1-3.5v-6h-1.8v-2.4h1.8v-2.9z"/></clipPath><clipPath id="n"><path d="m-130.3-336h1200v1594h-1200z"/></clipPath><clipPath id="o"><path d="m116 36.1c0 2.4 1.2 4.3 3.1 4.3 1.8 0 3.1-1.8 3.1-4.3 0-2-.9-4.2-3.1-4.2-2.2-.1-3.1 2.1-3.1 4.2zm9.5-.2c0 4.7-3.3 6.7-6.5 6.7-3.6 0-6.3-2.5-6.3-6.5 0-4.2 2.7-6.7 6.6-6.7 3.7 0 6.2 2.7 6.2 6.5z"/></clipPath><clipPath id="p"><path d="m-130.3-336h1200v1594h-1200z"/></clipPath><clipPath id="q"><path d="m127.6 33.8c0-1.7 0-2.9-.1-4.1h2.8l.1 2.4h.1c.6-1.8 2.1-2.7 3.5-2.7.3 0 .5 0 .8.1v3c-.3-.1-.5-.1-.9-.1-1.5 0-2.6 1-2.9 2.4-.1.3-.1.6-.1 1v6.6h-3.2v-8.6"/></clipPath><clipPath id="r"><path d="m-130.3-336h1200v1594h-1200z"/></clipPath><clipPath id="s"><path d="m144.2 34.7c0-1.2-.5-3.1-2.6-3.1-2 0-2.8 1.8-2.9 3.1zm-5.6 2.2c.1 2.3 1.9 3.3 3.9 3.3 1.5 0 2.5-.2 3.5-.6l.5 2.2c-1.1.4-2.6.8-4.4.8-4.1 0-6.5-2.5-6.5-6.4 0-3.5 2.1-6.8 6.2-6.8s5.5 3.4 5.5 6.2c0 .6-.1 1.1-.1 1.4h-8.6z"/></clipPath><clipPath id="t"><path d="m-130.3-336h1200v1594h-1200z"/></clipPath><clipPath id="u"><path d="m42.4 16.2c.3 0 .6.1 1.1.1 2.2 0 3.4-1.2 3.4-3.4 0-1.9-1.1-3.1-3.3-3.1-.5 0-.9 0-1.2.1zm-1-7.2c.6-.1 1.4-.2 2.2-.2 1.5 0 2.6.3 3.3 1s1.1 1.6 1.1 2.9-.4 2.4-1.2 3.1c-.8.8-2 1.2-3.6 1.2-.7 0-1.4 0-1.9-.1v-7.9z"/></clipPath><clipPath id="v"><path d="m-130.3-336h1200v1594h-1200z"/></clipPath><clipPath id="w"><path d="m49.3 11.2h1.1v5.8h-1.1zm1.2-1.6c0 .4-.3.6-.7.6s-.6-.3-.6-.6c0-.4.3-.7.7-.7s.6.3.6.7z"/></clipPath><clipPath id="x"><path d="m-130.3-336h1200v1594h-1200z"/></clipPath><clipPath id="y"><path d="m52 15.9c.3.2.9.4 1.4.4.8 0 1.1-.4 1.1-.9s-.3-.8-1.1-1.1c-1-.4-1.5-.9-1.5-1.6 0-.9.8-1.7 2-1.7.6 0 1.1.2 1.4.4l-.3.8c-.2-.1-.6-.3-1.2-.3s-1 .4-1 .8c0 .5.3.7 1.1 1 1 .4 1.5.9 1.5 1.8 0 1-.8 1.7-2.2 1.7-.6 0-1.2-.2-1.6-.4z"/></clipPath><clipPath id="z"><path d="m-130.3-336h1200v1594h-1200z"/></clipPath><clipPath id="A"><path d="m57.9 14.6v.4c.2.7.8 1.2 1.6 1.2 1.1 0 1.8-.9 1.8-2.2 0-1.2-.6-2.2-1.7-2.2-.7 0-1.4.5-1.6 1.3 0 .1-.1.3-.1.4zm-1-1.5c0-.7 0-1.3 0-1.9h.9v1c.4-.7 1.1-1.1 2.1-1.1 1.4 0 2.5 1.2 2.5 3 0 2.1-1.3 3.1-2.6 3.1-.8 0-1.4-.3-1.8-.9v3.2h-1v-6.4z"/></clipPath><clipPath id="B"><path d="m-130.3-336h1200v1594h-1200z"/></clipPath><clipPath id="C"><path d="m64.4 14.1c0 1.3.7 2.2 1.8 2.2 1 0 1.8-.9 1.8-2.3 0-1-.5-2.2-1.7-2.2-1.4.1-1.9 1.2-1.9 2.3zm4.6 0c0 2.1-1.5 3.1-2.9 3.1-1.6 0-2.8-1.2-2.8-3 0-1.9 1.3-3.1 2.9-3.1s2.8 1.2 2.8 3z"/></clipPath><clipPath id="D"><path d="m-130.3-336h1200v1594h-1200z"/></clipPath><clipPath id="E"><path d="m70.3 12.8c0-.6 0-1.1 0-1.6h.9l.1 1c.3-.6 1-1.1 1.9-1.1.8 0 2.1.5 2.1 2.5v3.4h-1.1v-3.3c0-.9-.3-1.7-1.3-1.7-.7 0-1.2.5-1.4 1.1 0 .1-.1.3-.1.5v3.4h-1.1z"/></clipPath><clipPath id="F"><path d="m-130.3-336h1200v1594h-1200z"/></clipPath><clipPath id="G"><path d="m77 11.2h1v5.8h-1zm1.1-1.6c0 .4-.3.6-.7.6s-.6-.3-.6-.6c0-.4.3-.7.7-.7s.6.3.6.7z"/></clipPath><clipPath id="H"><path d="m-130.3-336h1200v1594h-1200z"/></clipPath><clipPath id="I"><path d="m80.8 14.7v.4c.2.7.8 1.2 1.6 1.2 1.1 0 1.8-.9 1.8-2.2 0-1.2-.6-2.2-1.7-2.2-.7 0-1.4.5-1.6 1.3 0 .1-.1.3-.1.4zm-1.1 2.3c0-.4 0-1 0-1.5v-7h1v3.6c.4-.6 1-1.1 2-1.1 1.4 0 2.5 1.2 2.4 3 0 2.1-1.3 3.1-2.6 3.1-.8 0-1.5-.3-1.9-1.1v1z"/></clipPath><clipPath id="J"><path d="m-130.3-336h1200v1594h-1200z"/></clipPath><clipPath id="K"><path d="m86.6 8.5h1.1v8.5h-1.1z"/></clipPath><clipPath id="L"><path d="m-130.3-336h1200v1594h-1200z"/></clipPath><clipPath id="M"><path d="m93.1 13.5c0-.7-.3-1.7-1.5-1.7-1.1 0-1.5 1-1.6 1.7zm-3.1.8c0 1.4.9 2 2 2 .8 0 1.2-.1 1.6-.3l.2.8c-.4.2-1 .4-1.9.4-1.8 0-2.9-1.2-2.9-2.9s1-3.1 2.7-3.1c1.9 0 2.4 1.7 2.4 2.7v.5h-4.1z"/></clipPath><clipPath id="N"><path d="m-130.3-336h1200v1594h-1200z"/></clipPath><clipPath id="O"><path d="m101.7 13.5c0-.7-.3-1.7-1.5-1.7-1.1 0-1.5 1-1.6 1.7zm-3.1.8c0 1.4.9 2 2 2 .8 0 1.2-.1 1.6-.3l.2.8c-.4.2-1 .4-1.9.4-1.8 0-2.9-1.2-2.9-2.9s1-3.1 2.7-3.1c1.9 0 2.4 1.7 2.4 2.7v.5h-4.1z"/></clipPath><clipPath id="P"><path d="m-130.3-336h1200v1594h-1200z"/></clipPath><clipPath id="Q"><path d="m104 12.8c0-.6 0-1.1 0-1.6h.9l.1 1c.3-.6 1-1.1 1.9-1.1.8 0 2.1.5 2.1 2.5v3.4h-1.1v-3.3c0-.9-.3-1.7-1.3-1.7-.7 0-1.2.5-1.4 1.1 0 .1-.1.3-.1.5v3.4h-1.1z"/></clipPath><clipPath id="R"><path d="m-130.3-336h1200v1594h-1200z"/></clipPath><g clip-path="url(#a)"><path clip-path="url(#b)" d="m-5-5h169.7v65h-169.7z" fill="#3b3b3b"/></g><g clip-path="url(#c)"><path clip-path="url(#d)" d="m7 5.2h30.4v44.7h-30.4z" fill="#fff"/></g><g clip-path="url(#e)"><path clip-path="url(#f)" d="m35.5 19.9h25.4v27.5h-25.4z" fill="#fff"/></g><g clip-path="url(#g)"><path clip-path="url(#h)" d="m52.5 24.4h22.7v28.1h-22.7z" fill="#fff"/></g><g clip-path="url(#i)"><path clip-path="url(#j)" d="m67.2 24.4h22.7v28.1h-22.7z" fill="#fff"/></g><g clip-path="url(#k)"><path clip-path="url(#l)" d="m86.2 19.6h21.4v28.1h-21.4z" fill="#fff"/></g><g clip-path="url(#m)"><path clip-path="url(#n)" d="m98.6 21.1h18v26.5h-18z" fill="#fff"/></g><g clip-path="url(#o)"><path clip-path="url(#p)" d="m107.7 24.4h22.8v23.2h-22.8z" fill="#fff"/></g><g clip-path="url(#q)"><path clip-path="url(#r)" d="m122.5 24.4h17.2v22.9h-17.2z" fill="#fff"/></g><g clip-path="url(#s)"><path clip-path="url(#t)" d="m130.5 24.4h21.6v23.2h-21.6z" fill="#fff"/></g><g clip-path="url(#u)"><path clip-path="url(#v)" d="m36.4 3.9h16.6v18.2h-16.6z" fill="#fff"/></g><g clip-path="url(#w)"><path clip-path="url(#x)" d="m44.2 3.9h11.3v18.1h-11.3z" fill="#fff"/></g><g clip-path="url(#y)"><path clip-path="url(#z)" d="m46.7 6.1h13.8v16.1h-13.8z" fill="#fff"/></g><g clip-path="url(#A)"><path clip-path="url(#B)" d="m51.8 6.1h15.5v18.3h-15.5z" fill="#fff"/></g><g clip-path="url(#C)"><path clip-path="url(#D)" d="m58.3 6.1h15.7v16.1h-15.7z" fill="#fff"/></g><g clip-path="url(#E)"><path clip-path="url(#F)" d="m65.3 6.1h15v15.9h-15z" fill="#fff"/></g><g clip-path="url(#G)"><path clip-path="url(#H)" d="m71.8 3.9h11.3v18.1h-11.3z" fill="#fff"/></g><g clip-path="url(#I)"><path clip-path="url(#J)" d="m74.7 3.5h15.5v18.6h-15.5z" fill="#fff"/></g><g clip-path="url(#K)"><path clip-path="url(#L)" d="m81.6 3.5h11.1v18.5h-11.1z" fill="#fff"/></g><g clip-path="url(#M)"><path clip-path="url(#N)" d="m84 6.1h15.1v16.1h-15.1z" fill="#fff"/></g><g clip-path="url(#O)"><path clip-path="url(#P)" d="m92.6 6.1h15.1v16.1h-15.1z" fill="#fff"/></g><g clip-path="url(#Q)"><path clip-path="url(#R)" d="m99 6.1h15v15.9h-15z" fill="#fff"/></g></svg>