<?xml version="1.0" encoding="utf-8"?>
<!-- Generator: Adobe Illustrator 21.0.2, SVG Export Plug-In . SVG Version: 6.00 Build 0)  -->
<svg version="1.1" id="Capa_1" xmlns="http://www.w3.org/2000/svg" xmlns:xlink="http://www.w3.org/1999/xlink" x="0px" y="0px"
	 width="254.4px" height="46.3px" viewBox="0 0 254.4 46.3" style="enable-background:new 0 0 254.4 46.3;" xml:space="preserve">
<style type="text/css">
	.st0{fill:#F76C6F;}
	.st1{fill:#3D3D3D;}
</style>
<g>
	<path class="st0" d="M43.7,1c-5.3,0-11.8,5.1-15.6,12.3C24.6,5.7,17.5,0,11.6,0C4,0,0,6,0,11.6c0,14,18.2,25.4,28,31.5
		c2.1,1.3,3.7,2.3,4.7,3.1l0.1,0.1l0.1-0.1c12.7-7.9,19.8-26.1,19.8-35.6C52.7,4.5,49.3,1,43.7,1z M48.1,8.5
		c0,9.4-10.2,27.4-15.7,34.4c-2.3-3.7-6.7-7.4-11.4-11.3C13.6,25.4,5.9,18.9,5.3,11.3C5.1,8.6,5.7,6.5,7.1,5c1.3-1.5,3.1-2,4.3-2
		c3.8,0,7.8,7.4,11,13.3c2.7,5,4.4,8,5.9,8c0.6,0,1.4-0.7,1.4-1.5C29.7,20.7,37.6,4,45.2,4C45.5,4,48.1,4.1,48.1,8.5z"/>
	<g>
		<path class="st1" d="M187.4,37.2c-1.5,0-2.9,1.3-2.9,2.8s1.4,2.8,2.9,2.8c1.6,0,3-1.3,3-2.8C190.4,38.5,189,37.2,187.4,37.2z"/>
		<path class="st1" d="M77.9,19.8c-2,0-4.1,0.4-6,2.2V10c0-0.7-0.5-1.2-1.2-1.2H67c-0.7,0-1.2,0.5-1.2,1.2v22.5
			c0,6.7,3.5,10.4,10.7,10.4c7.4,0,10.6-5.2,10.6-11.6C87.2,25.7,84.6,19.8,77.9,19.8z M76.6,40.5c-4.4,0-4.7-5.3-4.7-8v-8
			c1.2-1.3,2.9-2,4.8-2c3.2,0,4.5,3.5,4.5,8.7C81.2,34,80.8,40.5,76.6,40.5z"/>
		<path class="st1" d="M100.4,19.8c-7.4,0-10.7,5.1-10.7,11.5c0,6.5,3.3,11.6,10.7,11.6c7.3,0,10.6-5.1,10.6-11.6
			C111,24.9,107.7,19.8,100.4,19.8z M100.3,40.5c-4.2,0-4.6-6.5-4.6-9.2s0.5-9.1,4.7-9.1c4.1,0,4.6,6.4,4.6,9.1
			S104.5,40.5,100.3,40.5z"/>
		<path class="st1" d="M253.3,38.9c-1.6,0.6-3.6,1.2-5.2,1.2c-2.1,0-3.7-0.3-3.7-3.1c0-5.3,0.2-9.1,0.6-14.3h4.5
			c0.6-0.2,1-0.9,1-1.5s-0.4-1.2-1-1.4h-4.3c0.2-1.9,0.4-3.4,0.6-5.5c0-0.6-0.6-0.9-1.2-0.9h-2c-0.6,0-1,0.5-1.2,1.2l-1.9,5.3h-2.6
			c-0.5,0.2-0.8,0.8-0.8,1.4s0.3,1.3,0.8,1.5h2.2c-0.2,3.5-0.6,7.1-0.6,10.5c0,2.2,0.1,4,0.4,5.4c-0.1,0-0.1,0-0.2,0
			c-1.8,0.8-3.9,1.6-6,1.6c-1.9,0-5.4-0.2-7-2.1c5.9-5.1,7-8.2,7-12.5c0-2.1-1.9-5.8-6.8-5.8c-4.4,0-8.6,4.6-8.6,11.1
			c0,2.9,0.8,5.7,2.5,7.9c-1.2,0.7-2.7,1.4-4.1,1.3c-1.8,0-3.1-0.2-3.1-3.1v-8.7c0-4.6-0.4-8.5-6.3-8.5c-2.8,0-4.5,1-6.5,2.9v-1.7
			c0-0.6-0.6-1.2-1.2-1.2h-3.7c-0.6,0-1.2,0.5-1.2,1.2v20.7c0,0.6,0.6,1.2,1.2,1.2h3.7c0.6,0,1.2-0.6,1.2-1.2V25.5
			c0-0.1,0-0.3,0.1-0.4c1.2-1.4,3-2.4,4.3-2.4s2.3,1.1,2.3,4v7.8c0,5.2,0.7,8.4,7.5,8.4c3,0,5.7-1.1,7.8-2.2c0.1,0,0.1,0.1,0.2,0.1
			c2.1,1.5,4.7,2,7.4,2c3.7,0,8.7-1.6,10.1-2.7c1,2,2.9,2.7,6.3,2.7c2.7,0,8.6-0.8,8.6-2.4C254.5,40,254.1,39,253.3,38.9z
			 M226.3,22.4c2,0,2.8,1.5,2.8,3.3c0,2.8-1.6,6.7-4.9,10c-1-2-1.6-4.4-1.6-6.6C222.6,25.3,224.7,22.4,226.3,22.4z"/>
		<path class="st1" d="M174.1,26.4L174.1,26.4c-1.3-1.1-1.3-3.7-1.2-5.3c0.1-0.7-0.5-1.3-1.2-1.3c-0.9,0-1.2,0.1-2.7,0.1
			c-0.8,0-1.3,0.8-1.5,1.4c-0.4,1.6-0.4,3.1-0.3,3.8c0.2,1,0.6,2,1.2,3c-0.7,7-3.7,12-6.3,12c-1.2,0-1.2-0.6-1.2-3.1v-5.1
			c0-3.5,0-10.1,0-10.1c0-1.1,0.2-2-1-2h-4.1c-0.6,0-0.9,0.4-1,0.8l0,0c-1.3-0.5-2.8-0.9-4.5-0.8c-7.4,0.1-10.7,5.1-10.7,11.5
			c0,2.8,0.7,5.9,2.4,8.2c-1.2,0.3-2.4,0.6-3.6,0.6c-2.1,0-3.7-0.3-3.7-3.1V9.9c0-0.6-0.5-1.1-1.2-1.1h-3.7c-0.7,0-1.2,0.5-1.2,1.1
			V22c-1.8-1.7-3.9-2.2-6.2-2.2c-6.4,0-9,6.2-9,11.4c0,5.3,2.5,11.7,8.9,11.7c2.5,0,5-1.4,6.9-3.4c0.7,2.6,3.7,3.4,6.9,3.4
			c2.8,0,5.6-0.6,7.7-1.5c1.3,0.9,2.8,1.4,4.7,1.4c2.5,0,4.9-1.3,6.8-3.4l0,0c1.3,3,3.3,3.5,5.5,3.5c6.7,0,9.6-9.2,10.3-11.9l0,0
			c1.3,0.9,6.1,3.6,6.5,6.1c0.3,2.2-1.3,3.6-3,3.8c-1.3,0.1-2.4-1.1-3-1.9c-0.2-0.4-0.7-0.5-1.1-0.2l-0.1,0.1
			c-0.4,0.3-0.6,0.9-0.3,1.4c0.5,1,1.8,2.6,4.8,2.6c3.8,0,7.6-3.4,6.9-8.1C181.6,31.6,177.5,28.8,174.1,26.4z M128.8,37.4
			c-1.2,1.4-3.1,2.6-4.9,2.6c-4.1,0-4.4-6.1-4.4-8.8s0.3-8.7,4.4-8.7c1.8,0,3.7,0.6,4.9,2V37.4z M155,37.4c-1.2,1.4-3.1,2.7-4.9,2.7
			c-4.1,0-4.4-6.1-4.4-8.8s0.5-9.1,4.6-9.1c4.4,0,4.6,5.2,4.6,7.9L155,37.4L155,37.4z"/>
	</g>
</g>
</svg>
