<svg enable-background="new 0 0 254.4 46.3" height="46.3" viewBox="0 0 254.4 46.3" width="254.4" xmlns="http://www.w3.org/2000/svg"><path d="m43.7 1c-5.3 0-11.8 5.1-15.6 12.3-3.5-7.6-10.6-13.3-16.5-13.3-7.6 0-11.6 6-11.6 11.6 0 14 18.2 25.4 28 31.5 2.1 1.3 3.7 2.3 4.7 3.1l.1.1.1-.1c12.7-7.9 19.8-26.1 19.8-35.6 0-6.1-3.4-9.6-9-9.6zm4.4 7.5c0 9.4-10.2 27.4-15.7 34.4-2.3-3.7-6.7-7.4-11.4-11.3-7.4-6.2-15.1-12.7-15.7-20.3-.2-2.7.4-4.8 1.8-6.3 1.3-1.5 3.1-2 4.3-2 3.8 0 7.8 7.4 11 13.3 2.7 5 4.4 8 5.9 8 .6 0 1.4-.7 1.4-1.5 0-2.1 7.9-18.8 15.5-18.8.3 0 2.9.1 2.9 4.5z" fill="#f76c6f"/><g fill="#3d3d3d"><path d="m187.4 37.2c-1.5 0-2.9 1.3-2.9 2.8s1.4 2.8 2.9 2.8c1.6 0 3-1.3 3-2.8s-1.4-2.8-3-2.8z"/><path d="m77.9 19.8c-2 0-4.1.4-6 2.2v-12c0-.7-.5-1.2-1.2-1.2h-3.7c-.7 0-1.2.5-1.2 1.2v22.5c0 6.7 3.5 10.4 10.7 10.4 7.4 0 10.6-5.2 10.6-11.6.1-5.6-2.5-11.5-9.2-11.5zm-1.3 20.7c-4.4 0-4.7-5.3-4.7-8v-8c1.2-1.3 2.9-2 4.8-2 3.2 0 4.5 3.5 4.5 8.7 0 2.8-.4 9.3-4.6 9.3z"/><path d="m100.4 19.8c-7.4 0-10.7 5.1-10.7 11.5 0 6.5 3.3 11.6 10.7 11.6 7.3 0 10.6-5.1 10.6-11.6 0-6.4-3.3-11.5-10.6-11.5zm-.1 20.7c-4.2 0-4.6-6.5-4.6-9.2s.5-9.1 4.7-9.1c4.1 0 4.6 6.4 4.6 9.1s-.5 9.2-4.7 9.2z"/><path d="m253.3 38.9c-1.6.6-3.6 1.2-5.2 1.2-2.1 0-3.7-.3-3.7-3.1 0-5.3.2-9.1.6-14.3h4.5c.6-.2 1-.9 1-1.5s-.4-1.2-1-1.4h-4.3c.2-1.9.4-3.4.6-5.5 0-.6-.6-.9-1.2-.9h-2c-.6 0-1 .5-1.2 1.2l-1.9 5.3h-2.6c-.5.2-.8.8-.8 1.4s.3 1.3.8 1.5h2.2c-.2 3.5-.6 7.1-.6 10.5 0 2.2.1 4 .4 5.4-.1 0-.1 0-.2 0-1.8.8-3.9 1.6-6 1.6-1.9 0-5.4-.2-7-2.1 5.9-5.1 7-8.2 7-12.5 0-2.1-1.9-5.8-6.8-5.8-4.4 0-8.6 4.6-8.6 11.1 0 2.9.8 5.7 2.5 7.9-1.2.7-2.7 1.4-4.1 1.3-1.8 0-3.1-.2-3.1-3.1v-8.7c0-4.6-.4-8.5-6.3-8.5-2.8 0-4.5 1-6.5 2.9v-1.7c0-.6-.6-1.2-1.2-1.2h-3.7c-.6 0-1.2.5-1.2 1.2v20.7c0 .6.6 1.2 1.2 1.2h3.7c.6 0 1.2-.6 1.2-1.2v-16.3c0-.1 0-.3.1-.4 1.2-1.4 3-2.4 4.3-2.4s2.3 1.1 2.3 4v7.8c0 5.2.7 8.4 7.5 8.4 3 0 5.7-1.1 7.8-2.2.1 0 .1.1.2.1 2.1 1.5 4.7 2 7.4 2 3.7 0 8.7-1.6 10.1-2.7 1 2 2.9 2.7 6.3 2.7 2.7 0 8.6-.8 8.6-2.4.1-.4-.3-1.4-1.1-1.5zm-27-16.5c2 0 2.8 1.5 2.8 3.3 0 2.8-1.6 6.7-4.9 10-1-2-1.6-4.4-1.6-6.6 0-3.8 2.1-6.7 3.7-6.7z"/><path d="m174.1 26.4c-1.3-1.1-1.3-3.7-1.2-5.3.1-.7-.5-1.3-1.2-1.3-.9 0-1.2.1-2.7.1-.8 0-1.3.8-1.5 1.4-.4 1.6-.4 3.1-.3 3.8.2 1 .6 2 1.2 3-.7 7-3.7 12-6.3 12-1.2 0-1.2-.6-1.2-3.1v-5.1c0-3.5 0-10.1 0-10.1 0-1.1.2-2-1-2h-4.1c-.6 0-.9.4-1 .8-1.3-.5-2.8-.9-4.5-.8-7.4.1-10.7 5.1-10.7 11.5 0 2.8.7 5.9 2.4 8.2-1.2.3-2.4.6-3.6.6-2.1 0-3.7-.3-3.7-3.1v-27.1c0-.6-.5-1.1-1.2-1.1h-3.7c-.7 0-1.2.5-1.2 1.1v12.1c-1.8-1.7-3.9-2.2-6.2-2.2-6.4 0-9 6.2-9 11.4 0 5.3 2.5 11.7 8.9 11.7 2.5 0 5-1.4 6.9-3.4.7 2.6 3.7 3.4 6.9 3.4 2.8 0 5.6-.6 7.7-1.5 1.3.9 2.8 1.4 4.7 1.4 2.5 0 4.9-1.3 6.8-3.4 1.3 3 3.3 3.5 5.5 3.5 6.7 0 9.6-9.2 10.3-11.9 1.3.9 6.1 3.6 6.5 6.1.3 2.2-1.3 3.6-3 3.8-1.3.1-2.4-1.1-3-1.9-.2-.4-.7-.5-1.1-.2l-.1.1c-.4.3-.6.9-.3 1.4.5 1 1.8 2.6 4.8 2.6 3.8 0 7.6-3.4 6.9-8.1-.2-3.2-4.3-6-7.7-8.4zm-45.3 11c-1.2 1.4-3.1 2.6-4.9 2.6-4.1 0-4.4-6.1-4.4-8.8s.3-8.7 4.4-8.7c1.8 0 3.7.6 4.9 2zm26.2 0c-1.2 1.4-3.1 2.7-4.9 2.7-4.1 0-4.4-6.1-4.4-8.8s.5-9.1 4.6-9.1c4.4 0 4.6 5.2 4.6 7.9z"/></g></svg>