<svg enable-background="new 0 0 20 20" viewBox="0 0 20 20" xmlns="http://www.w3.org/2000/svg" xmlns:xlink="http://www.w3.org/1999/xlink"><clipPath id="a"><path d="m8.5 3.1c-3 0-5.4 2.4-5.4 5.4s2.4 5.4 5.4 5.4 5.4-2.4 5.4-5.4c-.1-3-2.5-5.4-5.4-5.4zm10 16.9c-.4 0-.8-.2-1.1-.5l-4.1-4.1c-1.4 1-3.1 1.5-4.8 1.5-4.7 0-8.5-3.8-8.5-8.4s3.8-8.5 8.5-8.5 8.5 3.8 8.5 8.5c0 1.7-.5 3.4-1.5 4.8l4.1 4.1c.3.3.4.7.4 1.1 0 .8-.7 1.5-1.5 1.5z"/></clipPath><clipPath id="b"><path d="m-329-1396h1200v1594h-1200z"/></clipPath><g clip-path="url(#a)"><path clip-path="url(#b)" d="m-5-5h30v30h-30z" fill="#fff"/></g></svg>