<?xml version="1.0" encoding="utf-8"?>
<!-- Generator: Adobe Illustrator 22.0.1, SVG Export Plug-In . SVG Version: 6.00 Build 0)  -->
<svg version="1.1" id="Capa_1" xmlns="http://www.w3.org/2000/svg" xmlns:xlink="http://www.w3.org/1999/xlink" x="0px" y="0px"
	 viewBox="0 0 20 20" style="enable-background:new 0 0 20 20;" xml:space="preserve">
<style type="text/css">
	.st0{clip-path:url(#SVGID_2_);}
	.st1{clip-path:url(#SVGID_4_);fill:#FFFFFF;}
</style>
<g>
	<defs>
		<path id="SVGID_1_" d="M8.5,3.1c-3,0-5.4,2.4-5.4,5.4c0,3,2.4,5.4,5.4,5.4c3,0,5.4-2.4,5.4-5.4C13.8,5.5,11.4,3.1,8.5,3.1z
			 M18.5,20c-0.4,0-0.8-0.2-1.1-0.5l-4.1-4.1c-1.4,1-3.1,1.5-4.8,1.5C3.8,16.9,0,13.1,0,8.5S3.8,0,8.5,0c4.7,0,8.5,3.8,8.5,8.5
			c0,1.7-0.5,3.4-1.5,4.8l4.1,4.1c0.3,0.3,0.4,0.7,0.4,1.1C20,19.3,19.3,20,18.5,20z"/>
	</defs>
	<clipPath id="SVGID_2_">
		<use xlink:href="#SVGID_1_"  style="overflow:visible;"/>
	</clipPath>
	<g class="st0">
		<defs>
			<rect id="SVGID_3_" x="-329" y="-1396" width="1200" height="1594"/>
		</defs>
		<clipPath id="SVGID_4_">
			<use xlink:href="#SVGID_3_"  style="overflow:visible;"/>
		</clipPath>
		<rect x="-5" y="-5" class="st1" width="30" height="30"/>
	</g>
</g>
</svg>
